<svg width="40" height="40" viewBox="0 0 40 40" fill="none" xmlns="http://www.w3.org/2000/svg">
<path d="M26.6666 15.0003C36.6666 15.0003 36.6666 21.667 36.6666 21.667V25.0003H26.6666V21.667C26.6666 21.667 26.6666 18.8503 24.7499 16.3337C24.4666 15.9503 24.1166 15.5837 23.7499 15.2337C24.6166 15.1003 25.5666 15.0003 26.6666 15.0003ZM3.33325 21.667C3.33325 21.667 3.33325 15.0003 13.3333 15.0003C23.3333 15.0003 23.3333 21.667 23.3333 21.667V25.0003H3.33325V21.667ZM14.9999 28.3337V31.667H24.9999V28.3337L29.9999 33.3337L24.9999 38.3337V35.0003H14.9999V38.3337L9.99992 33.3337L14.9999 28.3337ZM13.3333 1.66699C10.5666 1.66699 8.33325 3.90033 8.33325 6.66699C8.33325 9.43366 10.5666 11.667 13.3333 11.667C16.0999 11.667 18.3333 9.43366 18.3333 6.66699C18.3333 3.90033 16.0999 1.66699 13.3333 1.66699ZM26.6666 1.66699C23.8999 1.66699 21.6666 3.90033 21.6666 6.66699C21.6666 9.43366 23.8999 11.667 26.6666 11.667C29.4333 11.667 31.6666 9.43366 31.6666 6.66699C31.6666 3.90033 29.4333 1.66699 26.6666 1.66699Z" fill="#999999"/>
</svg>
