<svg width="41" height="41" viewBox="0 0 41 41" fill="none" xmlns="http://www.w3.org/2000/svg">
<path d="M10.4408 22.2822V18.9489H23.7742L17.9408 13.1156L20.3075 10.7489L30.1742 20.6156L20.3075 30.4822L17.9408 28.1156L23.7742 22.2822H10.4408ZM37.1075 20.6156C37.1075 22.8043 36.6764 24.9715 35.8388 26.9936C35.0013 29.0157 33.7736 30.853 32.2259 32.4007C29.1003 35.5263 24.8611 37.2822 20.4408 37.2822C16.0206 37.2822 11.7813 35.5263 8.65572 32.4007C5.53012 29.2751 3.77417 25.0358 3.77417 20.6156C3.77417 18.4269 4.20527 16.2596 5.04284 14.2375C5.88042 12.2154 7.10808 10.3781 8.65572 8.83045C10.2034 7.2828 12.0407 6.05515 14.0628 5.21757C16.0849 4.37999 18.2521 3.94889 20.4408 3.94889C24.8611 3.94889 29.1003 5.70484 32.2259 8.83045C35.3516 11.9561 37.1075 16.1953 37.1075 20.6156ZM33.7742 20.6156C33.7742 17.0793 32.3694 13.688 29.8689 11.1875C27.3684 8.68698 23.9771 7.28223 20.4408 7.28223C16.9046 7.28223 13.5132 8.68698 11.0127 11.1875C8.51226 13.688 7.1075 17.0793 7.1075 20.6156C7.1075 24.1518 8.51226 27.5432 11.0127 30.0437C13.5132 32.5441 16.9046 33.9489 20.4408 33.9489C23.9771 33.9489 27.3684 32.5441 29.8689 30.0437C32.3694 27.5432 33.7742 24.1518 33.7742 20.6156Z" fill="#999999"/>
</svg>
