<svg width="40" height="40" viewBox="0 0 40 40" fill="none" xmlns="http://www.w3.org/2000/svg">
<path d="M30.0001 18.333V21.6663L16.6667 21.6663L22.5001 27.4997L20.1334 29.8663L10.2667 19.9997L20.1334 10.133L22.5001 12.4997L16.6667 18.333L30.0001 18.333ZM3.33342 19.9997C3.33342 17.811 3.76451 15.6437 4.60209 13.6216C5.43967 11.5995 6.66733 9.7622 8.21497 8.21456C11.3406 5.08896 15.5798 3.33301 20.0001 3.33301C24.4204 3.33301 28.6596 5.08896 31.7852 8.21456C34.9108 11.3402 36.6667 15.5794 36.6667 19.9997C36.6667 22.1884 36.2357 24.3556 35.3981 26.3777C34.5605 28.3998 33.3328 30.2371 31.7852 31.7848C30.2376 33.3324 28.4002 34.5601 26.3781 35.3977C24.356 36.2352 22.1888 36.6663 20.0001 36.6663C15.5798 36.6663 11.3406 34.9104 8.21497 31.7848C5.08936 28.6592 3.33342 24.4199 3.33342 19.9997ZM6.66675 19.9997C6.66675 23.5359 8.07151 26.9273 10.572 29.4278C13.0725 31.9282 16.4639 33.333 20.0001 33.333C23.5363 33.333 26.9277 31.9282 29.4282 29.4278C31.9287 26.9273 33.3334 23.5359 33.3334 19.9997C33.3334 16.4635 31.9287 13.0721 29.4282 10.5716C26.9277 8.0711 23.5363 6.66634 20.0001 6.66634C16.4639 6.66634 13.0725 8.0711 10.572 10.5716C8.07151 13.0721 6.66675 16.4635 6.66675 19.9997Z" fill="#999999"/>
</svg>
