<svg width="40" height="40" viewBox="0 0 40 40" fill="none" xmlns="http://www.w3.org/2000/svg">
<path d="M18.3332 18.333V3.33301H3.33325V18.333M6.66658 14.9997V6.66634H14.9999V14.9997M33.3332 10.833C33.3332 13.1663 31.4999 14.9997 29.1666 14.9997C26.8332 14.9997 24.9999 13.1663 24.9999 10.833C24.9999 8.49967 26.8499 6.66634 29.1666 6.66634C31.4832 6.66634 33.3332 8.51634 33.3332 10.833ZM10.8333 23.333L3.33325 36.6663H18.3332M12.6333 33.333H9.03325L10.8333 30.133M36.6666 10.833C36.6666 6.66634 33.3332 3.33301 29.1666 3.33301C24.9999 3.33301 21.6666 6.66634 21.6666 10.833C21.6666 14.9997 24.9999 18.333 29.1666 18.333C33.3332 18.333 36.6666 14.9997 36.6666 10.833ZM31.6666 28.333V23.333H28.3332V28.333H23.3332V31.6663H28.3332V36.6663H31.6666V31.6663H36.6666V28.333H31.6666Z" fill="#999999"/>
</svg>
