<svg width="40" height="40" viewBox="0 0 40 40" fill="none" xmlns="http://www.w3.org/2000/svg">
<path d="M19.9999 33.333C12.6499 33.333 6.66659 27.3497 6.66659 19.9997C6.66659 12.6497 12.6499 6.66634 19.9999 6.66634C27.3499 6.66634 33.3333 12.6497 33.3333 19.9997C33.3333 27.3497 27.3499 33.333 19.9999 33.333ZM19.9999 3.33301C10.7833 3.33301 3.33325 10.783 3.33325 19.9997C3.33325 29.2163 10.7833 36.6663 19.9999 36.6663C29.2166 36.6663 36.6666 29.2163 36.6666 19.9997C36.6666 10.783 29.2166 3.33301 19.9999 3.33301ZM24.3166 13.333L19.9999 17.6497L15.6833 13.333L13.3333 15.683L17.6499 19.9997L13.3333 24.3163L15.6833 26.6663L19.9999 22.3497L24.3166 26.6663L26.6666 24.3163L22.3499 19.9997L26.6666 15.683L24.3166 13.333Z" fill="#999999"/>
</svg>
