<svg width="40" height="40" viewBox="0 0 40 40" fill="none" xmlns="http://www.w3.org/2000/svg">
<path d="M20 13.333C21.7681 13.333 23.4638 14.0354 24.714 15.2856C25.9643 16.5359 26.6666 18.2316 26.6666 19.9997C26.6666 21.7678 25.9643 23.4635 24.714 24.7137C23.4638 25.964 21.7681 26.6663 20 26.6663C18.2319 26.6663 16.5362 25.964 15.2859 24.7137C14.0357 23.4635 13.3333 21.7678 13.3333 19.9997C13.3333 18.2316 14.0357 16.5359 15.2859 15.2856C16.5362 14.0354 18.2319 13.333 20 13.333ZM20 16.6663C19.1159 16.6663 18.2681 17.0175 17.643 17.6427C17.0178 18.2678 16.6666 19.1156 16.6666 19.9997C16.6666 20.8837 17.0178 21.7316 17.643 22.3567C18.2681 22.9818 19.1159 23.333 20 23.333C20.884 23.333 21.7319 22.9818 22.357 22.3567C22.9821 21.7316 23.3333 20.8837 23.3333 19.9997C23.3333 19.1156 22.9821 18.2678 22.357 17.6427C21.7319 17.0175 20.884 16.6663 20 16.6663ZM16.6666 36.6663C16.25 36.6663 15.9 36.3663 15.8333 35.9663L15.2166 31.5497C14.1666 31.133 13.2666 30.5663 12.4 29.8997L8.24998 31.583C7.88331 31.7163 7.43331 31.583 7.23331 31.2163L3.89998 25.4497C3.68331 25.083 3.78331 24.633 4.09998 24.383L7.61664 21.6163L7.49998 19.9997L7.61664 18.333L4.09998 15.6163C3.78331 15.3663 3.68331 14.9163 3.89998 14.5497L7.23331 8.78301C7.43331 8.41634 7.88331 8.26634 8.24998 8.41634L12.4 10.083C13.2666 9.43301 14.1666 8.86634 15.2166 8.44967L15.8333 4.03301C15.9 3.63301 16.25 3.33301 16.6666 3.33301H23.3333C23.75 3.33301 24.1 3.63301 24.1666 4.03301L24.7833 8.44967C25.8333 8.86634 26.7333 9.43301 27.6 10.083L31.75 8.41634C32.1166 8.26634 32.5666 8.41634 32.7666 8.78301L36.1 14.5497C36.3166 14.9163 36.2166 15.3663 35.9 15.6163L32.3833 18.333L32.5 19.9997L32.3833 21.6663L35.9 24.383C36.2166 24.633 36.3166 25.083 36.1 25.4497L32.7666 31.2163C32.5666 31.583 32.1166 31.733 31.75 31.583L27.6 29.9163C26.7333 30.5663 25.8333 31.133 24.7833 31.5497L24.1666 35.9663C24.1 36.3663 23.75 36.6663 23.3333 36.6663H16.6666ZM18.75 6.66634L18.1333 11.0163C16.1333 11.433 14.3666 12.4997 13.0833 13.983L9.06664 12.2497L7.81664 14.4163L11.3333 16.9997C10.6666 18.9497 10.6666 21.0663 11.3333 22.9997L7.79998 25.5997L9.04998 27.7663L13.1 26.033C14.3833 27.4997 16.1333 28.5663 18.1166 28.9663L18.7333 33.333H21.2666L21.8833 28.983C23.8666 28.5663 25.6166 27.4997 26.9 26.033L30.95 27.7663L32.2 25.5997L28.6666 23.0163C29.3333 21.0663 29.3333 18.9497 28.6666 16.9997L32.1833 14.4163L30.9333 12.2497L26.9166 13.983C25.6333 12.4997 23.8666 11.433 21.8666 11.033L21.25 6.66634H18.75Z" fill="#999999"/>
</svg>
