<svg width="40" height="40" viewBox="0 0 40 40" fill="none" xmlns="http://www.w3.org/2000/svg">
<g clip-path="url(#clip0_127_2103)">
<path d="M12.2073 30.2216L14.1036 21.9253L7.70361 16.2365L16.2369 15.5253L19.5555 7.70312L22.874 15.5253L31.4073 16.2365L27.6147 19.555H26.6666C25.8369 19.555 25.0073 19.6735 24.1777 20.029L26.7851 17.7772L21.5703 17.3031L19.5555 12.5624L17.5407 17.3031L12.3258 17.7772L16.2369 21.2142L15.0518 26.3105L19.5555 23.5846L20.1481 23.9402C19.911 24.5328 19.674 25.2439 19.674 25.8365L12.2073 30.2216ZM21.9258 25.4809V27.8513H31.4073V25.4809H21.9258Z" fill="#D3D3D3"/>
<circle cx="20" cy="20" r="19" stroke="#999999" stroke-width="2"/>
</g>
<defs>
<clipPath id="clip0_127_2103">
<rect width="40" height="40" fill="white"/>
</clipPath>
</defs>
</svg>
