<svg width="40" height="40" viewBox="0 0 40 40" fill="none" xmlns="http://www.w3.org/2000/svg">
<g clip-path="url(#clip0_127_2102)">
<circle cx="20" cy="20" r="19" stroke="#999999" stroke-width="2"/>
<path d="M13.0962 31.1113L14.9925 22.815L8.59253 17.1261L17.1259 16.415L20.4444 8.59277L23.7629 16.415L32.2962 17.1261L28.5036 20.4446H27.5555C26.7259 20.4446 25.8962 20.5631 25.0666 20.9187L27.674 18.6668L22.4592 18.1928L20.4444 13.452L18.4296 18.1928L13.2148 18.6668L17.1259 22.1039L15.9407 27.2002L20.4444 24.4743L21.037 24.8298C20.7999 25.4224 20.5629 26.1335 20.5629 26.7261L13.0962 31.1113ZM27.3185 31.3483L23.9999 27.7928L25.4222 26.3706L27.3185 28.2668L31.5851 24.0002L33.0073 25.6594L27.3185 31.3483Z" fill="#D3D3D3"/>
</g>
<defs>
<clipPath id="clip0_127_2102">
<rect width="40" height="40" fill="white"/>
</clipPath>
</defs>
</svg>
