<svg width="40" height="40" viewBox="0 0 40 40" fill="none" xmlns="http://www.w3.org/2000/svg">
<path d="M36.6666 19.9997L29.9999 13.333V18.333H16.6666V21.6663H29.9999V26.6663M33.3332 29.9997C31.2344 32.7981 28.3083 34.8652 24.9694 35.9082C21.6304 36.9512 18.048 36.9172 14.7295 35.8111C11.4109 34.7049 8.52456 32.5826 6.47922 29.7448C4.43387 26.9071 3.33325 23.4977 3.33325 19.9997C3.33325 16.5016 4.43387 13.0923 6.47922 10.2545C8.52456 7.41674 11.4109 5.29446 14.7295 4.18829C18.048 3.08211 21.6304 3.04811 24.9694 4.09112C28.3083 5.13412 31.2344 7.20124 33.3332 9.99967H28.7832C26.8588 8.30245 24.4854 7.19658 21.948 6.81477C19.4106 6.43296 16.817 6.79144 14.4782 7.84717C12.1395 8.90291 10.1551 10.6111 8.76314 12.7667C7.37116 14.9222 6.63075 17.4337 6.63075 19.9997C6.63075 22.5656 7.37116 25.0771 8.76314 27.2327C10.1551 29.3883 12.1395 31.0964 14.4782 32.1522C16.817 33.2079 19.4106 33.5664 21.948 33.1846C24.4854 32.8028 26.8588 31.6969 28.7832 29.9997H33.3332Z" fill="#999999"/>
</svg>
