<svg width="41" height="40" viewBox="0 0 41 40" fill="none" xmlns="http://www.w3.org/2000/svg">
<path d="M20.174 3.40039C11.0073 3.40039 3.50732 10.8837 3.50732 20.1004C3.50732 28.4337 9.60732 35.3504 17.574 36.6004V24.9337H13.3407V20.1004H17.574V16.4171C17.574 12.2337 20.0573 9.93372 23.874 9.93372C25.6907 9.93372 27.5907 10.2504 27.5907 10.2504V14.3671H25.4907C23.424 14.3671 22.774 15.6504 22.774 16.9671V20.1004H27.4073L26.6573 24.9337H22.774V36.6004C26.7014 35.9801 30.2777 33.9762 32.8572 30.9505C35.4367 27.9247 36.8496 24.0765 36.8407 20.1004C36.8407 10.8837 29.3407 3.40039 20.174 3.40039Z" fill="#999999"/>
</svg>
