<svg width="40" height="40" viewBox="0 0 40 40" fill="none" xmlns="http://www.w3.org/2000/svg">
<path d="M11.6666 36.6667H14.9999V40H11.6666V36.6667ZM18.3332 40H21.6666V36.6667H18.3332V40ZM24.9999 40H28.3332V36.6667H24.9999V40ZM36.6666 14.1667C36.6666 20.45 30.9999 25.6 22.4166 33.3833L19.9999 35.5833L17.5833 33.3833C8.99992 25.6 3.33325 20.45 3.33325 14.1667C3.33325 9.01667 7.36659 5 12.4999 5C15.3999 5 18.1832 6.35 19.9999 8.46667C21.8166 6.35 24.5999 5 27.4999 5C32.6332 5 36.6666 9.01667 36.6666 14.1667ZM33.3332 14.1667C33.3332 10.8333 30.8332 8.33333 27.4999 8.33333C24.9332 8.33333 22.4332 10 21.5499 12.2667H18.4499C17.5666 10 15.0666 8.33333 12.4999 8.33333C9.16658 8.33333 6.66658 10.8333 6.66658 14.1667C6.66658 18.9833 11.8999 23.7333 19.8166 30.9167L19.9999 31.0833L20.1666 30.9167C28.0999 23.7333 33.3332 18.9833 33.3332 14.1667Z" fill="#999999"/>
</svg>
