<svg width="40" height="40" viewBox="0 0 40 40" fill="none" xmlns="http://www.w3.org/2000/svg">
<path d="M19.9999 33.333C12.6666 33.333 6.66658 27.333 6.66658 19.9997C6.66658 12.6663 12.6666 6.66634 19.9999 6.66634C27.3332 6.66634 33.3332 12.6663 33.3332 19.9997C33.3332 27.333 27.3332 33.333 19.9999 33.333ZM19.9999 3.33301C10.8333 3.33301 3.33325 10.833 3.33325 19.9997C3.33325 29.1663 10.8333 36.6663 19.9999 36.6663C29.1666 36.6663 36.6666 29.1663 36.6666 19.9997C36.6666 10.833 29.1666 3.33301 19.9999 3.33301ZM18.3332 23.333H21.6666V28.333H26.6666V19.9997H29.9999L19.9999 11.6663L9.99992 19.9997H13.3333V28.333H18.3332V23.333Z" fill="#999999"/>
</svg>
