<svg width="41" height="41" viewBox="0 0 41 41" fill="none" xmlns="http://www.w3.org/2000/svg">
<path d="M20.559 33.718C13.2257 33.718 7.22567 27.718 7.22567 20.3847C7.22567 13.0514 13.2257 7.05135 20.559 7.05135C27.8923 7.05135 33.8923 13.0514 33.8923 20.3847C33.8923 27.718 27.8923 33.718 20.559 33.718ZM20.559 3.71802C11.3923 3.71802 3.89233 11.218 3.89233 20.3847C3.89233 29.5513 11.3923 37.0513 20.559 37.0513C29.7257 37.0513 37.2257 29.5513 37.2257 20.3847C37.2257 11.218 29.7257 3.71802 20.559 3.71802ZM18.8923 23.718H22.2257V28.718H27.2257V20.3847H30.559L20.559 12.0514L10.559 20.3847H13.8923V28.718H18.8923V23.718Z" fill="#999999"/>
</svg>
