<svg width="120" height="120" viewBox="0 0 120 120" fill="none" xmlns="http://www.w3.org/2000/svg">
<circle cx="60" cy="60" r="58.5" stroke="#999999" stroke-width="3"/>
<path d="M69.9999 33.3333C66.4637 33.3333 63.0723 34.738 60.5718 37.2385C58.0713 39.739 56.6666 43.1304 56.6666 46.6666C56.6666 50.2028 58.0713 53.5942 60.5718 56.0947C63.0723 58.5952 66.4637 59.9999 69.9999 59.9999C73.5361 59.9999 76.9275 58.5952 79.428 56.0947C81.9285 53.5942 83.3332 50.2028 83.3332 46.6666C83.3332 43.1304 81.9285 39.739 79.428 37.2385C76.9275 34.738 73.5361 33.3333 69.9999 33.3333ZM69.9999 39.6666C73.8666 39.6666 76.9999 42.7999 76.9999 46.6666C76.9999 50.5333 73.8666 53.6666 69.9999 53.6666C68.1434 53.6666 66.3629 52.9291 65.0502 51.6163C63.7374 50.3036 62.9999 48.5231 62.9999 46.6666C62.9999 44.8101 63.7374 43.0296 65.0502 41.7168C66.3629 40.4041 68.1434 39.6666 69.9999 39.6666ZM33.3333 43.3333V53.3333H23.3333V59.9999H33.3333V69.9999H39.9999V59.9999H49.9999V53.3333H39.9999V43.3333H33.3333ZM69.9999 63.3333C61.0999 63.3333 43.3333 67.7666 43.3333 76.6666V86.6666H96.6666V76.6666C96.6666 67.7666 78.8999 63.3333 69.9999 63.3333ZM69.9999 69.6666C79.8999 69.6666 90.3332 74.5332 90.3332 76.6666V80.3332H49.6666V76.6666C49.6666 74.5332 59.9999 69.6666 69.9999 69.6666Z" fill="#999999"/>
</svg>
