<svg width="120" height="120" viewBox="0 0 120 120" fill="none" xmlns="http://www.w3.org/2000/svg">
<circle cx="60" cy="60" r="58.5" fill="black" stroke="#999999" stroke-width="3"/>
<path d="M69.9999 33.333C66.4637 33.333 63.0723 34.7378 60.5718 37.2382C58.0713 39.7387 56.6666 43.1301 56.6666 46.6663C56.6666 50.2026 58.0713 53.5939 60.5718 56.0944C63.0723 58.5949 66.4637 59.9997 69.9999 59.9997C73.5361 59.9997 76.9275 58.5949 79.428 56.0944C81.9285 53.5939 83.3332 50.2026 83.3332 46.6663C83.3332 43.1301 81.9285 39.7387 79.428 37.2382C76.9275 34.7378 73.5361 33.333 69.9999 33.333ZM69.9999 39.6663C73.8666 39.6663 76.9999 42.7997 76.9999 46.6663C76.9999 50.533 73.8666 53.6663 69.9999 53.6663C68.1434 53.6663 66.3629 52.9288 65.0502 51.6161C63.7374 50.3033 62.9999 48.5229 62.9999 46.6663C62.9999 44.8098 63.7374 43.0293 65.0502 41.7166C66.3629 40.4038 68.1434 39.6663 69.9999 39.6663ZM33.3333 43.333V53.333H23.3333V59.9997H33.3333V69.9997H39.9999V59.9997H49.9999V53.333H39.9999V43.333H33.3333ZM69.9999 63.333C61.0999 63.333 43.3333 67.7663 43.3333 76.6663V86.6663H96.6666V76.6663C96.6666 67.7663 78.8999 63.333 69.9999 63.333ZM69.9999 69.6663C79.8999 69.6663 90.3332 74.533 90.3332 76.6663V80.333H49.6666V76.6663C49.6666 74.533 59.9999 69.6663 69.9999 69.6663Z" fill="#999999"/>
</svg>
