<svg width="55" height="55" viewBox="0 0 55 55" fill="none" xmlns="http://www.w3.org/2000/svg">
<g opacity="0.55">
<path d="M34.3749 36.6663H29.7916V18.333H34.3749M25.2083 36.6663H20.6249V18.333H25.2083M27.4999 4.58301C24.4905 4.58301 21.5105 5.17576 18.7301 6.32744C15.9497 7.47911 13.4234 9.16713 11.2954 11.2951C6.99768 15.5929 4.58325 21.4218 4.58325 27.4997C4.58325 33.5776 6.99768 39.4065 11.2954 43.7042C13.4234 45.8322 15.9497 47.5202 18.7301 48.6719C21.5105 49.8236 24.4905 50.4163 27.4999 50.4163C33.5778 50.4163 39.4067 48.0019 43.7044 43.7042C48.0022 39.4065 50.4166 33.5776 50.4166 27.4997C50.4166 24.4902 49.8238 21.5102 48.6722 18.7298C47.5205 15.9495 45.8325 13.4232 43.7044 11.2951C41.5764 9.16713 39.0501 7.47911 36.2697 6.32744C33.4894 5.17576 30.5094 4.58301 27.4999 4.58301Z" fill="white"/>
</g>
</svg>
