<svg width="150" height="30" viewBox="0 0 150 30" fill="none" xmlns="http://www.w3.org/2000/svg">
<path d="M45 21.5875L52.725 26.25L50.675 17.4625L57.5 11.55L48.5125 10.775L45 2.5L41.4875 10.775L32.5 11.55L39.3125 17.4625L37.275 26.25L45 21.5875Z" fill="#00FF00"/>
<path d="M75 21.5875L82.725 26.25L80.675 17.4625L87.5 11.55L78.5125 10.775L75 2.5L71.4875 10.775L62.5 11.55L69.3125 17.4625L67.275 26.25L75 21.5875Z" fill="#00FF00"/>
<path d="M15 21.5875L22.725 26.25L20.675 17.4625L27.5 11.55L18.5125 10.775L15 2.5L11.4875 10.775L2.5 11.55L9.3125 17.4625L7.275 26.25L15 21.5875Z" fill="#00FF00"/>
<path d="M105 21.5875L112.725 26.25L110.675 17.4625L117.5 11.55L108.513 10.775L105 2.5L101.488 10.775L92.5 11.55L99.3125 17.4625L97.275 26.25L105 21.5875Z" fill="#00FF00"/>
<path d="M135 21.5875L142.725 26.25L140.675 17.4625L147.5 11.55L138.513 10.775L135 2.5L131.488 10.775L122.5 11.55L129.313 17.4625L127.275 26.25L135 21.5875Z" fill="#00FF00"/>
</svg>
