<svg width="40" height="40" viewBox="0 0 40 40" fill="none" xmlns="http://www.w3.org/2000/svg">
<g clip-path="url(#clip0_738_2327)">
<path d="M12.2068 30.2226L14.1031 21.9263L7.70312 16.2374L16.2365 15.5263L19.555 7.7041L22.8735 15.5263L31.4068 16.2374L27.6142 19.556H26.6661C25.8365 19.556 25.0068 19.6745 24.1772 20.03L26.7846 17.7782L21.5698 17.3041L19.555 12.5634L17.5402 17.3041L12.3253 17.7782L16.2365 21.2152L15.0513 26.3115L19.555 23.5856L20.1476 23.9411C19.9105 24.5337 19.6735 25.2448 19.6735 25.8374L12.2068 30.2226ZM21.9253 25.4819V27.8522H31.4068V25.4819H21.9253Z" fill="#D3D3D3"/>
<circle cx="20" cy="20" r="19" stroke="#999999" stroke-width="2"/>
</g>
<defs>
<clipPath id="clip0_738_2327">
<rect width="40" height="40" fill="white"/>
</clipPath>
</defs>
</svg>
