<svg width="40" height="40" viewBox="0 0 40 40" fill="none" xmlns="http://www.w3.org/2000/svg">
<g clip-path="url(#clip0_571_2393)">
<circle cx="20" cy="20" r="19" stroke="#999999" stroke-width="2"/>
<path d="M13.0965 31.1113L14.9928 22.815L8.59277 17.1261L17.1261 16.415L20.4446 8.59277L23.7631 16.415L32.2965 17.1261L28.5039 20.4446H27.5557C26.7261 20.4446 25.8965 20.5631 25.0668 20.9187L27.6743 18.6668L22.4594 18.1928L20.4446 13.452L18.4298 18.1928L13.215 18.6668L17.1261 22.1039L15.9409 27.2002L20.4446 24.4743L21.0372 24.8298C20.8002 25.4224 20.5631 26.1335 20.5631 26.7261L13.0965 31.1113ZM27.3187 31.3483L24.0002 27.7928L25.4224 26.3706L27.3187 28.2668L31.5854 24.0002L33.0076 25.6594L27.3187 31.3483Z" fill="#D3D3D3"/>
</g>
<defs>
<clipPath id="clip0_571_2393">
<rect width="40" height="40" fill="white"/>
</clipPath>
</defs>
</svg>
