<svg width="40" height="40" viewBox="0 0 40 40" fill="none" xmlns="http://www.w3.org/2000/svg">
<path d="M19.9999 3.33301C17.8112 3.33301 15.644 3.7641 13.6219 4.60168C11.5998 5.43926 9.76245 6.66692 8.2148 8.21456C5.0892 11.3402 3.33325 15.5794 3.33325 19.9997C3.33325 24.4199 5.0892 28.6592 8.2148 31.7848C9.76245 33.3324 11.5998 34.5601 13.6219 35.3977C15.644 36.2352 17.8112 36.6663 19.9999 36.6663C24.4202 36.6663 28.6594 34.9104 31.785 31.7848C34.9106 28.6592 36.6666 24.4199 36.6666 19.9997C36.6666 17.811 36.2355 15.6437 35.3979 13.6216C34.5603 11.5995 33.3327 9.7622 31.785 8.21456C30.2374 6.66692 28.4001 5.43926 26.378 4.60168C24.3559 3.7641 22.1886 3.33301 19.9999 3.33301ZM11.7833 30.4663C12.4999 28.9663 16.8666 27.4997 19.9999 27.4997C23.1332 27.4997 27.4999 28.9663 28.2166 30.4663C25.9499 32.2663 23.0999 33.333 19.9999 33.333C16.8999 33.333 14.0499 32.2663 11.7833 30.4663ZM30.5999 28.0497C28.2166 25.1497 22.4332 24.1663 19.9999 24.1663C17.5666 24.1663 11.7833 25.1497 9.39992 28.0497C7.69992 25.833 6.66658 23.033 6.66658 19.9997C6.66658 12.6497 12.6499 6.66634 19.9999 6.66634C27.3499 6.66634 33.3332 12.6497 33.3332 19.9997C33.3332 23.033 32.2999 25.833 30.5999 28.0497ZM19.9999 9.99967C16.7666 9.99967 14.1666 12.5997 14.1666 15.833C14.1666 19.0663 16.7666 21.6663 19.9999 21.6663C23.2332 21.6663 25.8332 19.0663 25.8332 15.833C25.8332 12.5997 23.2332 9.99967 19.9999 9.99967ZM19.9999 18.333C19.3369 18.333 18.701 18.0696 18.2321 17.6008C17.7633 17.1319 17.4999 16.496 17.4999 15.833C17.4999 15.17 17.7633 14.5341 18.2321 14.0652C18.701 13.5964 19.3369 13.333 19.9999 13.333C20.663 13.333 21.2988 13.5964 21.7677 14.0652C22.2365 14.5341 22.4999 15.17 22.4999 15.833C22.4999 16.496 22.2365 17.1319 21.7677 17.6008C21.2988 18.0696 20.663 18.333 19.9999 18.333Z" fill="#999999"/>
</svg>
