<svg width="41" height="40" viewBox="0 0 41 40" fill="none" xmlns="http://www.w3.org/2000/svg">
<path d="M17.0147 24.9997L25.6647 19.9997L17.0147 14.9997V24.9997ZM36.2814 11.9497C36.4981 12.733 36.6481 13.783 36.7481 15.1163C36.8647 16.4497 36.9147 17.5997 36.9147 18.5997L37.0147 19.9997C37.0147 23.6497 36.7481 26.333 36.2814 28.0497C35.8647 29.5497 34.8981 30.5163 33.3981 30.933C32.6147 31.1497 31.1814 31.2997 28.9814 31.3997C26.8147 31.5163 24.8314 31.5663 22.9981 31.5663L20.3481 31.6663C13.3647 31.6663 9.01473 31.3997 7.29806 30.933C5.79806 30.5163 4.8314 29.5497 4.41473 28.0497C4.19806 27.2663 4.04806 26.2163 3.94806 24.883C3.8314 23.5497 3.7814 22.3997 3.7814 21.3997L3.6814 19.9997C3.6814 16.3497 3.94806 13.6663 4.41473 11.9497C4.8314 10.4497 5.79806 9.48301 7.29806 9.06634C8.0814 8.84967 9.51473 8.69967 11.7147 8.59967C13.8814 8.48301 15.8647 8.43301 17.6981 8.43301L20.3481 8.33301C27.3314 8.33301 31.6814 8.59967 33.3981 9.06634C34.8981 9.48301 35.8647 10.4497 36.2814 11.9497Z" fill="#999999"/>
</svg>
